<svg xmlns="http://www.w3.org/2000/svg" width="253.997" height="306.655" viewBox="0 0 253.997 306.655"><g transform="translate(-217.158 -259.703)"><g transform="translate(217.158 419.147)"><g transform="translate(0)"><path d="M378.951,398.831c-14.588-7.958-10.61-46.421-10.61-46.421l-21.848,1.407v-1.4l-2.337.7-2.337-.7v1.4l-21.848-1.407s3.978,38.463-10.61,46.421-100.79,11.936-91.506,100.79h252.6C479.741,410.767,393.539,406.787,378.951,398.831Z" transform="translate(-217.158 -352.41)" fill="#ffac9d"/><path d="M275.157,388.909q26.175-3.9,52.317-8.051c-2.451-13.264-.884-28.448-.884-28.448l-21.848,1.407v-1.4l-2.337.7-2.337-.7v1.4l-21.849-1.407S280.523,374.758,275.157,388.909Z" transform="translate(-175.407 -352.41)" fill="#cc887f"/></g><g transform="translate(0 50.84)"><g transform="translate(0)"><path d="M392.783,381.97c-12.952,7.566-30.206,12.185-49.154,12.185-18.784,0-35.906-4.539-48.82-11.989-28.87,7.779-84.5,23.893-76.952,96.175h252.6C478.075,405.446,421.432,389.678,392.783,381.97Z" transform="translate(-217.158 -381.97)" fill="#7aa8ce"/><path d="M450.766,399.7c-11.6,5.565-24.424,7.456-37.136,11.406q-26.954,8.377-54.092,16.141c-36.26,10.385-72.692,20.155-109.117,29.94q-15.585,4.185-31.159,8.386H468.943C472.192,434.489,463.735,413.815,450.766,399.7Z" transform="translate(-215.644 -369.204)" fill="#6f96bd"/></g><g transform="translate(0 2.852)"><path d="M284.644,383.755c-29.974,9.04-73.526,28.808-66.788,93.3H320.787Z" transform="translate(-217.158 -383.537)" fill="#ffa65b"/><path d="M332.052,383.628l-16.418,93.52h83.933C406.361,412.126,362.041,392.568,332.052,383.628Z" transform="translate(-146.268 -383.628)" fill="#ffa65b"/><path d="M293.844,477.057H302.9l-36.143-93.3a147.087,147.087,0,0,0-24.744,9.7Z" transform="translate(-199.268 -383.537)" fill="#d68950"/><path d="M332.052,383.628l-16.418,93.52h7.55l43.289-78.411C355.143,391.328,342.7,386.8,332.052,383.628Z" transform="translate(-146.268 -383.628)" fill="#d68950"/></g></g></g><g transform="translate(255.731 259.703)"><g transform="translate(20.368 28.023)"><path d="M276.77,324.052c-4.3-13.334-14.476-10.247-15.429-9.925-1,.115-11.52,1.679-9.7,15.57,1.828,13.976,9.937,21.548,17.539,19.325C277,347.779,281.094,337.465,276.77,324.052Z" transform="translate(-251.429 -248.932)" fill="#cc887f"/><path d="M316.8,324.052c4.3-13.334,14.476-10.247,15.429-9.925,1,.115,11.52,1.679,9.7,15.57-1.828,13.976-9.936,21.548-17.539,19.325C316.566,347.779,312.476,337.465,316.8,324.052Z" transform="translate(-205.633 -248.932)" fill="#cc887f"/><path d="M260.392,330.915c5.326-58.459,49.77-55.184,53.961-54.744,4.191-.44,48.635-3.715,53.961,54.744,5.357,58.809-20.836,97.216-53.961,95.1C281.228,428.131,255.035,389.724,260.392,330.915Z" transform="translate(-245.478 -275.997)" fill="#ffac9d"/></g><g transform="translate(47.919 82.699)"><path d="M294.729,348.754l-1.2-1.153,6.417-6.652-3.537-16.856,1.626-.341,3.718,17.717Z" transform="translate(-248.239 -296.172)" fill="#cc887f"/><path d="M322.261,344.131c-10.581,10.285-28.5,9.714-42.078.549" transform="translate(-258.28 -281.624)" fill="#fff"/><path d="M326.467,316.57a24.971,24.971,0,0,0-4.056-3.723,17.482,17.482,0,0,0-9.729-3.707c-4.249-.07-8.3,2.052-12.031,6.3l-2.03-1.782c4.286-4.881,9.039-7.312,14.122-7.223a17.175,17.175,0,0,1,6.367,1.406,24.044,24.044,0,0,1,4.97,2.878,27.167,27.167,0,0,1,4.475,4.136l-2.091,1.71,1.045-.855Z" transform="translate(-244.276 -307.787)" fill="#352c38"/><path d="M294.278,316.57a24.971,24.971,0,0,0-4.056-3.723,17.482,17.482,0,0,0-9.729-3.707c-4.249-.07-8.3,2.052-12.031,6.3l-2.03-1.782c4.286-4.881,9.039-7.312,14.122-7.223a17.175,17.175,0,0,1,6.367,1.406,24.044,24.044,0,0,1,4.97,2.878,27.167,27.167,0,0,1,4.475,4.136l-2.091,1.71,1.045-.855Z" transform="translate(-267.448 -307.787)" fill="#352c38"/><path d="M271.786,329.149c-.019-.209-.422-5.164,2.312-8.412a7.669,7.669,0,0,1,5.455-2.667,9.108,9.108,0,0,1,6.941,2.044,12.058,12.058,0,0,1,3.472,5.678,16.068,16.068,0,0,1,.663,3.262l-1.192.086c0-.053-.423-5.3-3.725-8.122a7.957,7.957,0,0,0-6.06-1.757,6.516,6.516,0,0,0-4.64,2.245c-2.418,2.873-2.04,7.491-2.036,7.538Z" transform="translate(-263.916 -299.986)" fill="#352c38"/><path d="M300.712,328.683c-.019-.209-.422-5.164,2.312-8.412a7.669,7.669,0,0,1,5.455-2.667,9.1,9.1,0,0,1,6.94,2.042,12.059,12.059,0,0,1,3.473,5.678,16.075,16.075,0,0,1,.664,3.263l-1.192.085c-.006-.078-.432-5.306-3.727-8.123a7.954,7.954,0,0,0-6.058-1.755,6.518,6.518,0,0,0-4.636,2.241c-2.415,2.864-2.044,7.5-2.04,7.542Z" transform="translate(-243.093 -300.321)" fill="#352c38"/></g><path d="M248.942,336.748c2.5-2.155,5.75-4.539,7.9-8.441a26.183,26.183,0,0,0,1.367-3.068c.26-1.1.621-2.215.8-3.368.126-1.154.323-2.33.363-3.533q.008-1.808.015-3.67-.142-1.777-.291-3.6l-.074-.915a2.36,2.36,0,0,1,0-.346l.007-.437c.017-.6.045-1.2.083-1.809a67.065,67.065,0,0,1,.855-7.407,37.6,37.6,0,0,1,1.985-7.3,15.674,15.674,0,0,1,.767-1.7,11.332,11.332,0,0,1,.884-1.541l.447-.707.66-.767.334-.383.084-.1.01-.014.136-.124.75-.691a25.935,25.935,0,0,1,4.217-2.936q-.039-1.909.005-3.825a30.677,30.677,0,0,0-6.482,4.325l-.745.7-.186.174-.167.175-.124.146-.332.387-.659.776-.659.992a14.318,14.318,0,0,0-1.089,1.976,19.064,19.064,0,0,0-.839,1.976,40.594,40.594,0,0,0-1.986,7.963,60.768,60.768,0,0,0-.7,7.784c-.016.638-.022,1.274-.017,1.913l.01.487c-.005.077.028.552.033.574l.108.912q.214,1.819.421,3.589c.275,4.5.057,9-1.747,12.483-1.73,3.522-4.608,6.03-7.019,8.409a31.48,31.48,0,0,0-5.576,6.842,19.582,19.582,0,0,0-1.474,2.912,15,15,0,0,0-.832,2.251l-.607,1.9.781-1.83a26.184,26.184,0,0,1,2.7-4.867A30.527,30.527,0,0,1,248.942,336.748Z" transform="translate(-239.586 -245.044)" fill="#352c38" opacity="0.3"/><path d="M309.736,278.722s19.491.573,25.8,24.651-.574,28.665-.574,48.156c0,0,0,12.039-2.865,16.052l-4.014-39.557S301.137,313.692,309.736,278.722Z" transform="translate(-190.306 -246.012)" fill="#965450"/><path d="M323.851,260.15a30.885,30.885,0,0,0-10.438,0,21.935,21.935,0,0,0-7.275,2.668,24.579,24.579,0,0,0-6.118,5.246c-3.55,4.1-6.226,8.8-9.449,13A31.994,31.994,0,0,1,278.7,291.116c-1.2.6-2.336,1.008-3.7,1.536a42.063,42.063,0,0,0-3.92,1.643,31.654,31.654,0,0,0-7.311,4.755l-.745.7-.186.174-.167.175-.041.05-.083.1-.332.387-.659.776-.659.992a14.321,14.321,0,0,0-1.089,1.976,19.064,19.064,0,0,0-.839,1.976,40.594,40.594,0,0,0-1.986,7.963,60.768,60.768,0,0,0-.7,7.784c-.016.638-.022,1.274-.017,1.913l.01.487c-.005.077.028.552.033.574l.108.912q.214,1.819.421,3.589c.275,4.5.057,9-1.747,12.483-1.73,3.522-4.608,6.03-7.019,8.409a31.48,31.48,0,0,0-5.576,6.842,19.582,19.582,0,0,0-1.474,2.912,15,15,0,0,0-.832,2.251l-.607,1.9.781-1.83a26.184,26.184,0,0,1,2.7-4.867,30.527,30.527,0,0,1,5.88-6.262c2.5-2.155,5.75-4.539,7.9-8.441a26.183,26.183,0,0,0,1.367-3.068c.26-1.1.621-2.215.8-3.368.126-1.154.323-2.33.363-3.533q.008-1.808.015-3.67-.142-1.777-.291-3.6l-.074-.915a2.36,2.36,0,0,1,0-.346l.007-.437c.017-.6.045-1.2.083-1.809a67.066,67.066,0,0,1,.855-7.408,37.6,37.6,0,0,1,1.985-7.3,15.679,15.679,0,0,1,.767-1.7,11.33,11.33,0,0,1,.884-1.541l.447-.707.66-.767.334-.384.084-.1.01-.014.136-.124.75-.691a26.753,26.753,0,0,1,4.838-3.29c-.793.507-1.548,1.028-2.239,1.569-.363.273-.715.562-1.063.862-.131.113-.273.225-.4.341q-.694.632-1.336,1.336c-6.231,6.663-5.5,23.5-5.421,23.934,4.587,26.373-11.465,21.213-16.624,40.132s20.369,31.2,14.332,37.837c-11.466,12.612-17.2-4.014-17.2-4.014-2.293,9.747,8.027,24.078,20.638,22.358,11.938-1.627,24.89-10.966,20.41-30.431l.04.095,1.335,3.19c.4,1.006.886,2,1.219,3.02l.939,3.1.617,3.158c.064,1.058.218,2.126.222,3.189a22.546,22.546,0,0,1-.23,3.178,16.289,16.289,0,0,1-.716,3.1,17.907,17.907,0,0,1-1.175,2.982,20.256,20.256,0,0,1-3.8,5.261,24.632,24.632,0,0,1-5.211,4.116,31.69,31.69,0,0,1-6.154,2.828,30.082,30.082,0,0,0,6.573-2.024,25.362,25.362,0,0,0,5.925-3.693,22.24,22.24,0,0,0,4.673-5.357,19.015,19.015,0,0,0,1.624-3.226,18.731,18.731,0,0,0,1.072-3.467,25.521,25.521,0,0,0,.528-3.594c.083-1.207.009-2.413.012-3.627-.12-1.2-.289-2.387-.456-3.582-.258-1.166-.568-2.32-.855-3.484-.315-1.154-.774-2.244-1.159-3.373l-1.133-3.171c-.182-.531-.4-1.08-.557-1.6l-.322-1.46a13.842,13.842,0,0,1-.4-2.881,7.341,7.341,0,0,1,1.672-4.872c1.151-1.489,2.932-2.938,4.6-4.707a27.943,27.943,0,0,0,2.413-2.829,22.421,22.421,0,0,0,1.954-3.275l.824-1.725.588-1.794c.181-.6.409-1.2.545-1.8l.335-1.823.328-1.823.127-1.813.215-3.457.187-3.409a25.437,25.437,0,0,1,.26-3.325,46.807,46.807,0,0,1,1.139-6.286,26.206,26.206,0,0,1,.862-3.1l1.051-2.841,1.032-1.495,1.29-1.47c.492-.416.96-.865,1.46-1.271.549-.342,1.065-.734,1.63-1.058.6-.27,1.169-.59,1.784-.838l1.911-.631,2.016-.421c.683-.11,1.391-.151,2.086-.236l4.6-.5,2.265-.267c.764-.112,1.567-.332,2.346-.494,1.556-.39,3.166-.626,4.661-1.156l4.473-1.594.58-.294c22.962-4.853,27.5-24.9,27.5-24.9C364.626,285.419,349.914,261.985,323.851,260.15ZM290.752,366.9a20.033,20.033,0,0,1-3.462,5c-1.386,1.6-3.149,3.065-4.75,5.216a11.6,11.6,0,0,0-1.09,1.737,7.966,7.966,0,0,0-.8,1.964l-.315,1.025-.107,1.042a9.447,9.447,0,0,0-.077,2.054l.083.8c-3.132-13.308,5.567-12.524,11.367-20.859l-.2.66Z" transform="translate(-239.586 -259.703)" fill="#76413b"/><path d="M284.793,325.268c-10.357-13.107-14.641-27.779-14.966-42.932-.557.373-1.12.745-1.62,1.135-.363.273-.715.562-1.063.862-.131.113-.273.225-.4.341q-.694.632-1.336,1.336c-6.231,6.663-5.5,23.5-5.421,23.934,4.587,26.373-11.465,21.213-16.624,40.132s20.369,31.2,14.332,37.837c-11.466,12.612-17.2-4.014-17.2-4.014-2.293,9.747,8.027,24.078,20.638,22.358,11.938-1.627,24.89-10.966,20.41-30.431l.04.095,1.335,3.19c.4,1.006.886,2,1.219,3.02l.939,3.1.617,3.158c.064,1.058.218,2.126.222,3.189a22.546,22.546,0,0,1-.23,3.178,16.289,16.289,0,0,1-.716,3.1,17.907,17.907,0,0,1-1.175,2.982A20.256,20.256,0,0,1,280,406.1a24.632,24.632,0,0,1-5.211,4.116,31.69,31.69,0,0,1-6.154,2.828,30.082,30.082,0,0,0,6.573-2.024,25.362,25.362,0,0,0,5.925-3.693,22.24,22.24,0,0,0,4.673-5.357,19.015,19.015,0,0,0,1.624-3.226,18.731,18.731,0,0,0,1.072-3.467,25.521,25.521,0,0,0,.528-3.594c.083-1.207.009-2.413.012-3.627-.12-1.2-.289-2.387-.456-3.582-.258-1.166-.568-2.32-.855-3.484-.315-1.154-.774-2.244-1.159-3.373l-1.133-3.171c-.182-.531-.4-1.08-.557-1.6l-.322-1.46a13.842,13.842,0,0,1-.4-2.881,7.341,7.341,0,0,1,1.672-4.872c1.151-1.489,2.932-2.938,4.6-4.707a27.943,27.943,0,0,0,2.413-2.829,22.421,22.421,0,0,0,1.954-3.275l.824-1.725.588-1.794c.181-.6.409-1.2.545-1.8l.335-1.823.328-1.823.127-1.813.21-3.374A91.41,91.41,0,0,1,284.793,325.268Zm6.176,23.982-.64,1.357a20.033,20.033,0,0,1-3.462,5c-1.386,1.6-3.149,3.065-4.75,5.216a11.6,11.6,0,0,0-1.09,1.737,7.966,7.966,0,0,0-.8,1.964l-.315,1.025-.107,1.042a9.447,9.447,0,0,0-.077,2.054l.083.8c-3.132-13.308,5.567-12.524,11.367-20.859Z" transform="translate(-239.163 -243.41)" fill="#352c38" opacity="0.3"/></g></g></svg>